# xmcd CD database file
#
# Track frame offsets:
#	150
#	29885
#	61873
#	92800
#	134913
#	173933
#	202030
#	236955
#	275723
#	314185
#
# Disc length: 4366 seconds
#
# Revision: 0
# Processed by: cddbd v1.5.2PL0 Copyright (c) Steve Scherf et al.
# Submitted via: CDex 1.70beta3
#
DISCID=ab110c0a
DTITLE=Akiko Grace - MOMENTUM
DYEAR=2006
DGENRE=Jazz
TTITLE0=Paradoxical Climate
TTITLE1=Night and Day
TTITLE2=Where The Streets Have No Name
TTITLE3=Red Shoes
TTITLE4=All Blues
TTITLE5=Subliminal One Oh One
TTITLE6=Dear Old Stockholm
TTITLE7=City Time
TTITLE8=Earth～this beautiful planet
TTITLE9=Departure solo～from after hours
EXTD=YEAR: 2006
EXTT0=
EXTT1=
EXTT2=
EXTT3=
EXTT4=
EXTT5=
EXTT6=
EXTT7=
EXTT8=
EXTT9=
PLAYORDER=
